<svg width="128" height="35" viewBox="0 0 128 35" fill="none" xmlns="http://www.w3.org/2000/svg">
<path d="M0.853952 0.582596L8.82195 0.591316C11.5419 0.594293 13.5252 1.23646 14.7718 2.51783C16.0185 3.76719 16.6404 5.70388 16.6375 8.32787L16.636 9.67187C16.6341 11.3999 16.3446 12.8076 15.7674 13.8949C15.2222 14.9823 14.3733 15.7654 13.2208 16.2441L13.2207 16.3401C15.8437 17.239 17.1532 19.5764 17.149 23.3524L17.1459 26.2324C17.1431 28.8244 16.4529 30.8077 15.0754 32.1822C13.7299 33.5247 11.7452 34.1945 9.12118 34.1917L0.817181 34.1826L0.853952 0.582596ZM8.18298 14.2706C9.23898 14.2718 10.0233 14.0006 10.5359 13.4572C11.0805 12.9138 11.3535 12.0021 11.3549 10.7221L11.3569 8.8501C11.3582 7.6341 11.1352 6.75385 10.6878 6.20936C10.2724 5.66491 9.60069 5.39217 8.67269 5.39116L6.1287 5.38837L6.11898 14.2684L8.18298 14.2706ZM9.12643 29.3917C10.0544 29.3927 10.7427 29.1534 11.1912 28.6739C11.6398 28.1624 11.8647 27.2987 11.8661 26.0827L11.8693 23.1547C11.8709 21.6187 11.6001 20.5624 11.0567 19.9858C10.5454 19.3772 9.68172 19.0723 8.46572 19.0709L6.11372 19.0684L6.10243 29.3884L9.12643 29.3917ZM20.2602 0.603834L28.0842 0.612397C30.8042 0.615373 32.7875 1.25754 34.0341 2.53891C35.2807 3.78827 35.9026 5.72496 35.8997 8.34896L35.8975 10.413C35.8936 13.901 34.7392 16.1077 32.4342 17.0332L32.4341 17.1292C33.7137 17.5146 34.6088 18.2995 35.1195 19.4841C35.6622 20.6687 35.9325 22.253 35.9303 24.237L35.9239 30.141C35.9228 31.101 35.954 31.885 36.0173 32.4931C36.0807 33.0692 36.24 33.6453 36.4954 34.2216L31.1194 34.2157C30.928 33.6715 30.8006 33.1594 30.7371 32.6793C30.6736 32.1993 30.6426 31.3352 30.6439 30.0872L30.6507 23.9432C30.6523 22.4072 30.3975 21.3349 29.8862 20.7264C29.4068 20.1179 28.5592 19.8129 27.3432 19.8116L25.5192 19.8096L25.5034 34.2096L20.2234 34.2038L20.2602 0.603834ZM27.4444 15.0117C28.5004 15.0129 29.2847 14.7417 29.7973 14.1983C30.3419 13.6549 30.6149 12.7432 30.6163 11.4632L30.6191 8.87118C30.6205 7.65518 30.3974 6.77493 29.95 6.23044C29.5346 5.68599 28.8629 5.41325 27.9349 5.41224L25.5349 5.40961L25.5244 15.0096L27.4444 15.0117ZM43.6996 0.629486L50.8515 0.637313L56.2868 34.2433L51.0068 34.2375L50.0541 27.5645L50.054 27.6605L44.054 27.6539L43.0868 34.2288L38.1908 34.2235L43.6996 0.629486ZM49.435 23.0998L47.1011 6.48921L47.0051 6.48911L44.683 23.0946L49.435 23.0998ZM58.8852 0.646105L65.5092 0.653354L70.6232 20.771L70.7192 20.7711L70.7412 0.65908L75.4452 0.664228L75.4084 34.2642L69.9844 34.2583L63.6752 9.72335L63.5792 9.72325L63.5524 34.2512L58.8484 34.2461L58.8852 0.646105ZM79.3695 0.668523L87.4335 0.677348C90.0575 0.680219 92.0248 1.38637 93.3352 2.79581C94.6457 4.20524 95.2994 6.26996 95.2964 8.98996L95.2778 25.9819C95.2749 28.7019 94.6166 30.7652 93.3031 32.1718C91.9895 33.5784 90.0208 34.2802 87.3968 34.2773L79.3328 34.2685L79.3695 0.668523ZM87.306 29.4772C88.17 29.4782 88.8263 29.2229 89.2748 28.7114C89.7554 28.1999 89.9963 27.3682 89.9976 26.2162L90.0167 8.74418C90.018 7.59218 89.7789 6.75992 89.2994 6.24739C88.852 5.7349 88.1963 5.47819 87.3323 5.47724L84.6443 5.4743L84.618 29.4743L87.306 29.4772ZM98.8695 0.689863L104.15 0.695641L104.118 29.4956L112.806 29.5051L112.801 34.3051L98.8327 34.2898L98.8695 0.689863ZM115.978 20.0046L109.615 0.701623L115.231 0.707769L118.817 13.0477L118.913 13.0478L122.527 0.715753L127.663 0.721374L121.258 20.0104L121.242 34.3144L115.962 34.3086L115.978 20.0046Z" fill="#DC0000"/>
</svg>
